<svg width="32" height="29" viewBox="0 0 32 29" fill="none" xmlns="http://www.w3.org/2000/svg">
<g id="Group">
<path id="Path" fill-rule="evenodd" clip-rule="evenodd" d="M10.4994 3.625H21.9944C25.1613 3.625 27.7298 6.05617 27.7298 9.05767V19.9435C27.7298 22.9426 25.1626 25.375 21.9931 25.375H10.4994C7.33119 25.375 4.7627 22.9438 4.7627 19.9423V9.05767C4.7627 6.05737 7.32991 3.625 10.4994 3.625V3.625Z" stroke="#323232" stroke-width="1.5" stroke-linecap="round" stroke-linejoin="round"/>
<path id="Path_2" d="M22.5602 8.11164C22.3229 8.11285 22.1302 8.2953 22.1302 8.52005C22.1302 8.7448 22.3241 8.92726 22.5615 8.92726C22.7988 8.92726 22.9915 8.7448 22.9915 8.52005C22.9927 8.2941 22.7988 8.11164 22.5602 8.11164" stroke="#323232" stroke-width="1.5" stroke-linecap="round" stroke-linejoin="round"/>
<path id="Path_3" d="M19.4938 11.424C21.2877 13.1228 21.2877 15.877 19.4938 17.5758C17.7 19.2746 14.7916 19.2746 12.9977 17.5758C11.2039 15.877 11.2039 13.1228 12.9977 11.424C14.7916 9.72521 17.7 9.72521 19.4938 11.424" stroke="#323232" stroke-width="1.5" stroke-linecap="round" stroke-linejoin="round"/>
</g>
</svg>
