<svg width="32" height="29" viewBox="0 0 32 29" fill="none" xmlns="http://www.w3.org/2000/svg">
<g id="Group">
<path id="Path" fill-rule="evenodd" clip-rule="evenodd" d="M10.4381 3.625H21.9267C25.0949 3.625 27.6634 6.05737 27.6634 9.05767V19.9435C27.6634 22.9426 25.0949 25.375 21.9267 25.375H10.433C7.26478 25.375 4.69629 22.9426 4.69629 19.9423V9.0625C4.69629 6.05979 7.26733 3.625 10.4381 3.625V3.625Z" stroke="#323232" stroke-width="1.5" stroke-linecap="round" stroke-linejoin="round"/>
<path id="Path_2" d="M11.2288 13.4126V19.9376" stroke="#323232" stroke-width="1.5" stroke-linecap="round" stroke-linejoin="round"/>
<g id="Group_2">
<path id="Path_3" d="M15.8213 19.9376V16.1313C15.8213 14.6294 17.1062 13.4126 18.6922 13.4126V13.4126C20.2782 13.4126 21.5631 14.6294 21.5631 16.1313V19.9376" stroke="#323232" stroke-width="1.5" stroke-linecap="round" stroke-linejoin="round"/>
<path id="Path_4" d="M11.2265 9.47096C11.0683 9.47096 10.9395 9.59301 10.9407 9.74284C10.9407 9.89267 11.0696 10.0147 11.2278 10.0147C11.386 10.0147 11.5149 9.89267 11.5149 9.74284C11.5149 9.5918 11.386 9.47096 11.2265 9.47096" stroke="#323232" stroke-width="1.5" stroke-linecap="round" stroke-linejoin="round"/>
</g>
</g>
</svg>
