<svg width="203" height="44" viewBox="0 0 203 44" fill="none" xmlns="http://www.w3.org/2000/svg">
<g id="LOGO HUNTINI 1">
<g id="Group">
<path id="Vector" d="M126.778 29.9094L106.131 7.71836H100.921L104.201 11.1917V35.8914H105.166V12.3495C107.868 15.244 126.199 35.1195 127.357 36.0843H127.936V7.52539H126.971V29.9094H126.778Z" fill="#463D3C"/>
<path id="Vector_2" d="M199.913 7.52539H195.86V35.6984H199.913V7.52539Z" fill="#463D3C"/>
<path id="Vector_3" d="M163.828 7.52539H159.775V35.6984H163.828V7.52539Z" fill="#463D3C"/>
<path id="Vector_4" d="M191.614 29.9094L170.967 7.71836H165.757L169.037 11.3847V35.8914H170.002V12.3495C172.704 15.244 191.035 35.1195 192 36.0843H192.579V7.52539H191.614V29.9094Z" fill="#463D3C"/>
<path id="Vector_5" d="M131.409 7.52539L129.672 17.3666H130.251L135.461 8.49022H141.057V35.6984H145.302V8.49022H150.898L156.301 17.3666H156.687L154.95 7.52539H131.409Z" fill="#463D3C"/>
<path id="Vector_6" d="M70.0456 21.226H53.8365V7.52539H49.7842V35.6984H53.8365V21.9978H70.0456V35.6984H74.0979V7.52539H70.0456V21.226Z" fill="#463D3C"/>
<path id="Vector_7" d="M99.1834 23.9275C99.1834 29.5235 94.9382 34.3476 89.9211 34.3476C84.904 34.3476 80.6587 29.5235 80.6587 23.9275V7.52539H76.6064V23.9275C76.6064 30.6813 81.8165 36.2773 88.3774 36.2773C94.9382 36.2773 100.148 30.6813 100.148 23.9275V7.52539H99.1834V23.9275Z" fill="#463D3C"/>
<path id="Vector_8" d="M26.4358 1.92969C19.8749 1.92969 14.6649 7.5257 14.6649 14.2795V30.6816H15.6297V22.577H25.6639V29.9097C25.6639 35.5057 21.4187 40.3299 16.4016 40.3299C11.3844 40.3299 7.1392 35.5057 7.1392 29.9097V13.3147H3.08691V29.7168C3.08691 36.4706 8.29699 42.0666 14.8578 42.0666C21.4187 42.0666 26.6287 36.4706 26.6287 29.7168V22.3841V21.6122V13.3147H25.6639V21.4192H15.6297V14.0865C15.6297 8.49052 19.8749 3.66638 24.892 3.66638C29.9092 3.66638 34.1544 8.49052 34.1544 14.0865V30.4886H38.2067V14.0865C38.2067 7.33273 32.8036 1.92969 26.4358 1.92969Z" fill="#463D3C"/>
</g>
</g>
</svg>
