<svg width="32" height="29" viewBox="0 0 32 29" fill="none" xmlns="http://www.w3.org/2000/svg">
<g id="Group">
<g id="Group_2">
<path id="Path" fill-rule="evenodd" clip-rule="evenodd" d="M28.3415 7.70082C28.0493 6.48765 27.1842 5.53065 26.0843 5.20198C24.0951 4.61353 16.114 4.61353 16.114 4.61353C16.114 4.61353 8.13676 4.61353 6.14372 5.20198C5.04768 5.52582 4.18258 6.48282 3.88656 7.70082C3.35449 9.9024 3.35449 14.5001 3.35449 14.5001C3.35449 14.5001 3.35449 19.0978 3.88656 21.2994C4.17876 22.5126 5.04385 23.4696 6.14372 23.7982C8.13676 24.3867 16.114 24.3867 16.114 24.3867C16.114 24.3867 24.0951 24.3867 26.0843 23.7982C27.1803 23.4744 28.0454 22.5174 28.3415 21.2994C28.8735 19.0978 28.8735 14.5001 28.8735 14.5001C28.8735 14.5001 28.8735 9.9024 28.3415 7.70082Z" stroke="#323232" stroke-width="1.5" stroke-linecap="round" stroke-linejoin="round"/>
<path id="Path_2" fill-rule="evenodd" clip-rule="evenodd" d="M13.5645 18.125L20.1943 14.5L13.5645 10.875V18.125Z" stroke="#323232" stroke-width="1.5" stroke-linecap="round" stroke-linejoin="round"/>
</g>
</g>
</svg>
